<?xml version="1.0" encoding="UTF-8"?>
<svg width="446px" height="410px" viewBox="0 0 446 410" version="1.1" xmlns="http://www.w3.org/2000/svg" xmlns:xlink="http://www.w3.org/1999/xlink">
    <path d="M204.382061,225.577255 C204.302572,225.577255 204.25256,225.577255 204.235082,225.574167 L194.717794,225.577255 L194.717794,224.171929 L204.26949,224.171929 C204.490631,224.179809 209.002605,224.307254 213.159825,219.26288 C219.354971,211.744977 224.44251,193.134189 213.497627,147.16581 C198.780771,85.3548171 211.055237,30.7482502 217.015567,10.1397889 C217.610951,8.0726616 217.1996,5.84588434 215.904993,4.12789418 C214.610386,2.40990402 212.583248,1.40071729 210.432088,1.40327308 L68.2981729,1.40327308 C66.1064736,1.40621255 64.0475763,2.45421033 62.7554979,4.2245459 C60.2305745,7.69777762 56.7655659,14.3701826 54.5972834,26.4349794 L53.216284,26.1869445 C55.4314989,13.860031 59.0092251,6.99134381 61.6204636,3.39957794 C63.17692,1.2663954 65.6575128,0.00354065691 68.2981588,0 L210.432116,0 C213.024391,-0.00249058751 215.46695,1.2141421 217.026635,3.28471781 C218.586319,5.35529352 219.081558,8.03876643 218.363702,10.5296662 C212.434069,31.0312334 200.223128,85.3544733 214.862896,146.841031 C225.961605,193.455881 220.626032,212.469906 214.195866,220.212212 C209.954534,225.31859 205.281367,225.577255 204.382061,225.577255 Z" id="Path" fill="#E6E6E6"></path>
    <path d="M178.772397,251.186918 C178.692909,251.186918 178.642896,251.186918 178.625418,251.183831 L169.108131,251.186918 L169.108131,249.781593 L178.659827,249.781593 C178.882168,249.788441 183.392941,249.916918 187.550162,244.872543 C193.745308,237.354641 198.832846,218.743852 187.887964,172.775474 C173.171107,110.964481 185.445574,56.3579139 191.405904,35.7494526 C192.001287,33.6823254 191.589936,31.4555481 190.295329,29.737558 C189.000722,28.0195678 186.973584,27.0103811 184.822424,27.0129369 L42.6885091,27.0129369 C40.4968098,27.0158763 38.4379125,28.0638741 37.1458341,29.8342097 C34.6209107,33.3074414 31.1559022,39.9798463 28.9877038,52.0446432 L27.6065361,51.7966083 C29.8218351,39.4696948 33.3995613,32.6010076 36.0108138,29.0092417 C37.5672702,26.8760592 40.047863,25.6132044 42.6885091,25.6096638 L184.822452,25.6096638 C187.414727,25.6071732 189.857286,26.8238059 191.416971,28.8943816 C192.976655,30.9649573 193.471895,33.6484302 192.754038,36.13933 C186.824405,56.6408972 174.613465,110.964137 189.253232,172.450695 C200.351941,219.065545 195.016368,238.07957 188.586202,245.821876 C184.34487,250.928254 179.671703,251.186918 178.772397,251.186918 Z" id="Path" fill="#CCCCCC"></path>
    <path d="M153.162733,276.796582 C153.083245,276.796582 153.033232,276.796582 153.015755,276.793495 L13.0725397,276.796582 C10.3367632,276.796582 7.77757231,275.443651 6.24124097,273.179988 C4.70490963,270.916326 4.3915676,268.03798 5.40483094,265.496763 C10.4824344,252.810817 17.3191762,222.375001 6.05841762,161.065922 C-7.23854781,88.6711352 4.66577112,62.5074958 10.4010658,54.6189055 C11.9575784,52.4857 14.4382317,51.2228463 17.0789295,51.2193276 L159.212788,51.2193276 C161.805064,51.216837 164.247623,52.4334697 165.807307,54.5040454 C167.366991,56.5746211 167.862231,59.258094 167.144375,61.7489937 C161.214741,82.250561 149.003801,136.573801 163.643569,198.060358 C174.742278,244.675209 169.406873,263.689233 162.976539,271.43154 C158.735206,276.537917 154.062039,276.796582 153.162733,276.796582 Z M17.0789295,52.6225958 C14.8871785,52.6255182 12.8282207,53.6735149 11.5360861,55.4438735 C5.90716624,63.18618 -5.76025277,88.9520627 7.43853994,160.8124 C18.1959389,219.380389 12.9786469,250.35064 6.70752788,266.018197 C5.84892322,268.118134 6.10667573,270.509399 7.39305999,272.378129 C8.66801606,274.263736 10.7963328,275.393358 13.0725186,275.393358 L153.050163,275.393358 C153.271136,275.401873 157.783278,275.526918 161.940498,270.482207 C168.135644,262.964304 173.223183,244.353516 162.2783,198.385138 C147.561443,136.574145 159.83591,81.9675777 165.79624,61.3591164 C166.391624,59.2919892 165.980272,57.0652119 164.685665,55.3472217 C163.391058,53.6292316 161.36392,52.6200449 159.21276,52.6225958 L17.0789295,52.6225958 Z" id="Shape" fill="#3F3D56"></path>
    <path d="M135.037272,114.366448 L23.4773672,114.366448 C20.3773504,114.366448 17.8642902,111.853387 17.8642902,108.753371 C17.8642902,105.653354 20.3773504,103.140294 23.4773672,103.140294 L135.037272,103.140294 C138.137289,103.140294 140.650349,105.653354 140.650349,108.753371 C140.650349,111.853387 138.137289,114.366448 135.037272,114.366448 Z" id="Path" fill="#F4B832"></path>
    <path d="M135.037272,138.222025 L23.4773672,138.222025 C20.3773504,138.222025 17.8642902,135.708965 17.8642902,132.608948 C17.8642902,129.508931 20.3773504,126.995871 23.4773672,126.995871 L135.037272,126.995871 C138.137289,126.995871 140.650349,129.508931 140.650349,132.608948 C140.650349,135.708965 138.137289,138.222025 135.037272,138.222025 Z" id="Path" fill="#CCCCCC"></path>
    <path d="M135.037272,162.077602 L23.4773672,162.077602 C20.3773504,162.077602 17.8642902,159.564542 17.8642902,156.464525 C17.8642902,153.364508 20.3773504,150.851448 23.4773672,150.851448 L135.037272,150.851448 C138.137289,150.851448 140.650349,153.364508 140.650349,156.464525 C140.650349,159.564542 138.137289,162.077602 135.037272,162.077602 Z" id="Path" fill="#CCCCCC"></path>
    <path d="M143.456888,185.933179 L31.8969827,185.933179 C28.7969659,185.933179 26.2839057,183.420119 26.2839057,180.320102 C26.2839057,177.220085 28.7969659,174.707025 31.8969827,174.707025 L143.456888,174.707025 C146.556905,174.707025 149.069965,177.220085 149.069965,180.320102 C149.069965,183.420119 146.556905,185.933179 143.456888,185.933179 Z" id="Path" fill="#CCCCCC"></path>
    <path d="M143.456888,209.788756 L31.8969827,209.788756 C28.7969659,209.788756 26.2839057,207.275696 26.2839057,204.175679 C26.2839057,201.075663 28.7969659,198.562602 31.8969827,198.562602 L143.456888,198.562602 C146.556905,198.562602 149.069965,201.075663 149.069965,204.175679 C149.069965,207.275696 146.556905,209.788756 143.456888,209.788756 Z" id="Path" fill="#CCCCCC"></path>
    <path d="M76.099964,90.5108703 L23.4773672,90.5108703 C20.3773504,90.5108703 17.8642902,87.9978102 17.8642902,84.8977934 C17.8642902,81.7977765 20.3773504,79.2847164 23.4773672,79.2847164 L76.099964,79.2847164 C79.1999808,79.2847164 81.713041,81.7977765 81.713041,84.8977934 C81.713041,87.9978102 79.1999808,90.5108703 76.099964,90.5108703 Z" id="Path" fill="#F4B832"></path>
    <path d="M69.3051168,248.253573 C70.4376252,243.457901 75.758717,241.885966 80.1091113,242.061753 C82.8576995,242.247267 85.5841372,242.678689 88.2557207,243.350845 C91.0511032,243.976226 93.8192974,244.716767 96.5735431,245.502176 C101.624253,246.94245 106.622859,248.684503 111.756762,249.810669 C116.030741,250.748207 120.675352,251.29805 124.937593,250.003738 C129.034711,248.759571 132.510588,245.705342 133.625324,241.482645 C134.675825,237.503275 133.233566,233.152277 129.377544,231.333802 C125.861126,229.675474 121.419274,230.518783 119.676372,234.269132 C117.711268,238.497625 119.674737,243.109181 122.786353,246.169087 C124.55493,247.829657 126.492071,249.301012 128.566265,250.559215 C130.671547,251.993916 133.014824,253.043455 135.487013,253.658974 C139.54597,254.525934 144.381095,253.24844 146.474289,249.370583 C146.939603,248.492769 147.219465,247.528659 147.296492,246.538133 C147.420408,245.189752 145.314725,245.198186 145.191588,246.538133 C144.83673,250.39953 140.31473,252.207916 136.933124,251.784325 C134.650441,251.406142 132.470593,250.560119 130.530442,249.299374 C128.657973,248.207647 126.883633,246.95571 125.227333,245.557612 C122.359198,243.075545 119.670597,238.991014 121.596928,235.117745 C123.165467,231.963898 127.254362,231.995331 129.741313,234.029314 C132.753087,236.492528 132.216049,240.96333 130.229616,243.888487 C128.030097,247.127415 124.043458,248.485197 120.284647,248.631635 C116.200432,248.790752 112.150323,247.853522 108.246933,246.745059 C103.396806,245.36775 98.5950226,243.826336 93.7215878,242.529701 C90.954846,241.793567 88.1668166,241.129239 85.3502096,240.612309 C82.6869112,240.025379 79.9513869,239.836015 77.2326198,240.050377 C72.8404432,240.557561 68.3569418,243.114268 67.2754282,247.694027 C66.9643514,249.011311 68.9934507,249.573495 69.3051449,248.253594 L69.3051168,248.253573 Z" id="Path" fill="#3F3D56"></path>
    <path d="M284.355891,367.263744 C284.477072,381.079387 285.489058,394.872838 287.385549,408.558232 C287.451895,409.038852 287.524185,409.519422 287.590819,410 L416.9739,409.277071 C417.353786,408.799763 417.727694,408.316729 418.089969,407.827922 C419.297903,406.210226 420.430033,404.546552 421.469315,402.825491 C426.464617,394.534128 428.751517,384.826592 426.459817,378.128956 L426.418772,378.024882 C425.924087,376.558252 425.144568,375.203783 424.124974,374.039247 C418.89995,368.157696 408.3355,369.138119 398.748477,373.885491 C407.34743,364.472999 414.194416,352.595861 414.714664,341.994162 C415.224753,331.653331 409.817598,324.266157 403.95288,317.98833 C403.760443,317.780801 403.568041,317.579031 403.375638,317.377304 C403.282251,317.273526 403.183236,317.175535 403.090129,317.071757 C398.514391,312.287612 393.179877,307.571441 385.458493,308.141933 C376.990149,308.768732 367.601281,315.861907 361.018195,324.127373 C354.43508,332.387016 350.060451,341.77013 345.626274,350.927585 C341.186408,360.079272 336.382842,369.464772 329.258261,377.287071 C338.908025,365.081386 346.688269,351.194031 349.562283,337.687557 C352.436298,324.181083 349.906954,311.208996 341.306759,304.847955 C338.695823,302.97633 335.67459,301.757265 332.495877,301.292773 C332.124867,301.231113 331.747984,301.181051 331.365186,301.13682 C323.403815,300.23101 313.898174,302.98447 305.810565,309.566259 C296.903854,316.813267 290.728768,327.556627 287.656317,337.755342 C284.584139,347.95405 284.256736,357.772339 284.355891,367.263744 Z" id="Path" fill="#F2F2F2"></path>
    <path d="M369.005842,409.545088 L371.47989,409.531266 C372.265454,409.040122 373.054723,408.554743 373.847696,408.075129 C374.338588,407.765273 374.835198,407.466959 375.33206,407.162842 C383.5385,402.150799 391.796272,397.343225 400.105375,392.740118 C408.406892,388.133185 416.750148,383.738513 425.135145,379.556102 C425.59377,379.356433 425.844476,378.857811 425.731212,378.370599 C425.722228,378.339678 425.708306,378.310412 425.689984,378.283933 C425.573028,378.064377 425.311634,377.973109 424.930114,378.16067 C423.901636,378.676371 422.867217,379.192073 421.83881,379.719393 C413.430888,383.973395 405.059075,388.439706 396.72337,393.118327 C388.393382,397.794956 380.110856,402.677991 371.875794,407.767434 C371.702652,407.872679 371.529257,407.983776 371.356114,408.089049 C370.570803,408.574419 369.791153,409.059753 369.005842,409.545088 Z" id="Path" fill="#FFFFFF"></path>
    <path d="M337.106059,409.723331 L338.635931,409.714786 C338.980981,409.231907 339.320088,408.749035 339.665138,408.266121 C347.772119,396.897717 355.877402,385.529309 363.980987,374.160896 C377.251536,355.549051 390.518123,336.937227 403.780748,318.325423 C403.859368,318.225245 403.917823,318.110776 403.95288,317.988351 C404.066306,317.576274 403.763607,317.334589 403.375638,317.377326 C403.044745,317.424593 402.750222,317.61204 402.567292,317.891792 C395.127116,328.329309 387.688809,338.762952 380.252371,349.192723 C367.050905,367.71148 353.851317,386.228282 340.653607,404.743129 C339.814151,405.918367 338.974722,407.099407 338.135265,408.274673 C337.790215,408.75758 337.445166,409.240488 337.106059,409.723331 Z" id="Path" fill="#FFFFFF"></path>
    <path d="M303.023322,400.839058 C303.101393,403.417334 303.272037,405.954529 303.494904,408.468226 C303.538055,408.948963 303.581297,409.42969 303.62463,409.910408 L305.229766,409.901441 C305.180652,409.420766 305.131586,408.940062 305.088436,408.459323 C304.749259,404.827837 304.508605,401.155306 304.475909,397.383003 C304.433223,386.924519 305.452447,376.48872 307.517902,366.23613 C309.713392,355.196866 312.86577,344.369694 316.939332,333.877239 C321.214795,322.810974 326.36955,312.104846 332.354175,301.861504 C332.466917,301.694554 332.517095,301.493159 332.495863,301.292829 C332.429643,300.835363 331.82054,300.699723 331.365172,301.136877 C331.275227,301.222647 331.19776,301.320612 331.135036,301.427908 C330.394577,302.701112 329.667644,303.978113 328.954236,305.25891 C323.190299,315.559104 318.256732,326.302442 314.200424,337.386815 C310.336809,347.913667 307.397908,358.757191 305.417075,369.794329 C303.561663,380.033748 302.759563,390.436238 303.023322,400.839058 L303.023322,400.839058 Z" id="Path" fill="#FFFFFF"></path>
    <path d="M146.64494,248.752309 C146.100783,248.299193 145.882455,247.56332 146.091442,246.886751 C146.30043,246.210182 146.895737,245.725635 147.600644,245.658346 C151.427518,245.288764 155.28968,245.684623 158.96201,246.822849 L196.369919,258.375705 C197.687214,258.782531 198.687404,259.861222 198.99373,261.205445 C199.300055,262.549668 198.865977,263.955205 197.855009,264.892602 C196.84404,265.829999 195.409771,266.156844 194.092477,265.750018 L156.684567,254.197162 C153.009896,253.066345 149.597052,251.215436 146.64494,248.752309 Z" id="Path" fill="#3F3D56"></path>
    <path d="M299.985082,296.743788 C297.928015,295.881036 296.358749,294.151442 295.699541,292.020407 C295.040334,289.889372 295.358902,287.575802 296.569525,285.702234 L290.157637,252.169986 L306.499704,250.895936 L307.486146,283.695201 C310.566466,285.987918 311.445137,290.222195 309.531411,293.551245 C307.617685,296.880296 303.516466,298.251851 299.985082,296.743788 Z" id="Path" fill="#F5CEA1"></path>
    <path d="M289.149093,279.437717 L272.504285,201.919419 C271.080858,195.28931 275.301708,188.76063 281.931817,187.337203 C288.561925,185.913776 295.090606,190.134625 296.514033,196.764734 L313.159009,274.282345 C313.522916,275.986853 312.438597,277.664328 310.734981,278.032392 L292.898966,281.861914 C292.080206,282.03803 291.225018,281.88152 290.521701,281.426844 C289.818384,280.972167 289.324608,280.256607 289.149093,279.437717 L289.149093,279.437717 Z" id="Path" fill="#F4B832"></path>
    <polygon id="Path" fill="#F5CEA1" points="261.828992 401.379913 253.227653 401.379913 249.135018 368.201015 261.831097 368.201717"></polygon>
    <path d="M247.083109,398.921863 L263.672467,398.921863 L263.672467,409.367006 L236.637972,409.367006 L236.637972,409.367006 C236.637972,406.596783 237.738436,403.94002 239.697279,401.981175 C241.656123,400.02233 244.312885,398.921863 247.083109,398.921863 L247.083109,398.921863 Z" id="Path" fill="#2F2E41"></path>
    <polygon id="Path" fill="#F5CEA1" points="290.596011 400.678279 281.994673 400.678279 277.902038 367.499381 290.598116 367.500082"></polygon>
    <path d="M275.850128,398.220228 L292.439486,398.220228 L292.439486,408.665372 L265.404992,408.665372 L265.404992,408.665372 C265.404992,405.895148 266.505456,403.238385 268.464299,401.27954 C270.423142,399.320696 273.079905,398.220228 275.850128,398.220228 Z" id="Path" fill="#2F2E41"></path>
    <path d="M251.523081,395.190984 C250.871686,394.656224 250.462972,393.881766 250.389092,393.042228 L240.388939,283.040443 C240.310634,282.177504 240.590352,281.3203 241.162567,280.669636 C241.734783,280.018972 242.549219,279.632016 243.415089,279.599416 L293.56775,277.718572 C294.445121,277.68596 295.296476,278.020021 295.917543,278.640601 C296.53861,279.261181 296.873339,280.112273 296.841416,280.98967 L292.832367,390.568692 C292.771503,392.155266 291.543945,393.450901 289.962962,393.597228 L279.850414,394.516755 C279.003292,394.593814 278.160918,394.325768 277.514102,393.773335 C276.867286,393.220902 276.470764,392.430831 276.414355,391.582084 L271.773393,321.968149 C271.76676,321.697969 271.651856,321.441783 271.454498,321.257147 C271.257139,321.072511 270.993875,320.974908 270.723852,320.986267 L270.719573,320.986267 C270.448596,320.975691 270.184788,321.074748 269.987742,321.261062 C269.790695,321.447376 269.677034,321.705228 269.672432,321.976372 L265.519323,392.059666 C265.433451,393.610356 264.227737,394.865784 262.68178,395.014207 L253.847624,395.898098 C253.00925,395.984298 252.171462,395.729445 251.523109,395.190984 L251.523081,395.190984 Z" id="Path" fill="#2F2E41"></path>
    <circle id="Oval" fill="#F5CEA1" cx="270.81477" cy="153.631647" r="17.2328691"></circle>
    <path d="M237.6288,283.785249 C237.007439,283.079471 236.736236,282.131772 236.890161,281.204131 C240.071667,261.866015 238.278527,233.440909 236.213876,213.000335 C235.117132,201.964211 239.997134,191.182435 249.012541,184.723231 L258.012345,177.009355 C258.610528,176.502535 259.373681,176.232456 260.157502,176.249366 L282.515791,176.888786 C283.322021,176.910834 284.088981,177.241729 284.658211,177.813106 L288.113109,185.46394 L288.148738,185.489978 C296.511222,191.636835 301.232186,201.569024 300.718522,211.934888 L297.427554,279.948907 C297.340248,281.58795 296.017794,282.890128 294.377597,282.9521 L240.107977,284.858981 C240.072895,284.860388 240.038087,284.860388 240.003145,284.860388 C239.09359,284.861623 238.227899,284.469627 237.6288,283.785249 L237.6288,283.785249 Z" id="Path" fill="#F4B832"></path>
    <path d="M172.533953,255.40342 C172.4792,253.17343 173.415007,251.033724 175.089567,249.560055 C176.764126,248.086385 179.005423,247.430132 181.210367,247.767881 L209.181108,228.193355 L217.032133,242.582478 L187.509614,256.906784 C186.678456,260.655658 183.17471,263.19039 179.354008,262.806834 C175.533306,262.423278 172.603317,259.242671 172.533925,255.403392 L172.533953,255.40342 Z" id="Path" fill="#F5CEA1"></path>
    <path d="M196.072875,258.805955 C195.244473,258.680986 194.500415,258.230012 194.006344,257.553432 L183.212032,242.84717 C182.182516,241.440747 182.485314,239.466433 183.888997,238.433186 L247.804214,191.519594 C253.271059,187.50701 260.955654,188.685921 264.968238,194.152766 C268.980823,199.61961 267.801912,207.304206 262.335067,211.31679 L198.419822,258.230397 C197.880757,258.628189 197.228453,258.842959 196.558505,258.842959 C196.395928,258.842959 196.233589,258.830497 196.072875,258.805955 Z" id="Path" fill="#F4B832"></path>
    <path d="M271.696886,168.972467 C273.982244,166.170405 273.732041,161.902221 271.897835,158.786136 C270.063628,155.67005 266.949963,153.523925 263.746138,151.847671 C260.542313,150.171417 257.138775,148.8532 254.123689,146.857274 C251.108604,144.861348 251.240076,136.411716 250.437266,132.886108 L252.352027,133.523893 C251.616103,132.582426 251.380067,129.800487 250.644143,128.859019 C252.807739,129.072793 254.471455,131.127025 256.635043,131.340799 L255.386541,127.989498 C262.805899,127.532081 267.418718,132.687734 274.838077,132.230318 C278.514088,132.00369 282.506241,131.86029 285.528224,133.965544 C288.154288,135.794993 289.48364,138.961379 290.355877,142.040706 C292.228659,148.652343 292.519718,156.058496 289.285049,162.121335 C286.05038,168.184174 278.594488,172.269624 272.0808,170.080362 L271.696886,168.972467 Z" id="Path" fill="#2F2E41"></path>
    <path d="M177.083752,409.754624 L444.406543,409.754624 C444.794046,409.754624 445.108178,409.440492 445.108178,409.05299 C445.108178,408.665488 444.794046,408.351355 444.406543,408.351355 L177.083752,408.351355 C176.69625,408.351355 176.382117,408.665488 176.382117,409.05299 C176.382117,409.440492 176.69625,409.754624 177.083752,409.754624 Z" id="Path" fill="#CACACA"></path>
</svg>